/* XPM */
static char * snowglobe_icon_xpm[] = {
"32 32 621 2",
"  	c None",
". 	c #005DA1",
"+ 	c #00599F",
"@ 	c #00559C",
"# 	c #005A9F",
"$ 	c #0C65A6",
"% 	c #005BA0",
"& 	c #4591C1",
"* 	c #8BC1DF",
"= 	c #C6E7F6",
"- 	c #E4FAFF",
"; 	c #E1F8FF",
"> 	c #D9F6FF",
", 	c #B9E4F5",
"' 	c #81BDDF",
") 	c #3F8FC1",
"! 	c #005CA0",
"~ 	c #58A3CF",
"{ 	c #B5E7F9",
"] 	c #C3ECFA",
"^ 	c #CFEEFA",
"/ 	c #DCF3FB",
"( 	c #E7F7FD",
"_ 	c #D7E1E5",
": 	c #D9E8EE",
"< 	c #D8F2FB",
"[ 	c #CBEDFA",
"} 	c #BCE9F9",
"| 	c #B0E5F9",
"1 	c #A1E1F8",
"2 	c #4FA2CF",
"3 	c #005B9F",
"4 	c #1E78B3",
"5 	c #91D8F3",
"6 	c #A6E2F7",
"7 	c #B5E6F9",
"8 	c #C4EBFA",
"9 	c #D3F0FB",
"0 	c #E3F5FC",
"a 	c #F4FDFF",
"b 	c #C8CBCE",
"c 	c #D0DBE0",
"d 	c #DFF4FC",
"e 	c #CFEFFB",
"f 	c #C0EAF9",
"g 	c #B0E5F8",
"h 	c #A1E0F7",
"i 	c #92DBF6",
"j 	c #7FD2F3",
"k 	c #1B78B4",
"l 	c #005A9E",
"m 	c #318DC3",
"n 	c #8CDCF9",
"o 	c #96DCF6",
"p 	c #A5E1F7",
"q 	c #C4EBF9",
"r 	c #D3F0FA",
"s 	c #E1F2F9",
"t 	c #F3FCFF",
"u 	c #D3D7D9",
"v 	c #D7E2E7",
"w 	c #D0EBF6",
"x 	c #BFEAFA",
"y 	c #91DBF6",
"z 	c #81D5F4",
"A 	c #77D5F7",
"B 	c #2A8CC3",
"C 	c #298AC2",
"D 	c #7DD6F7",
"E 	c #84D6F4",
"F 	c #93DBF6",
"G 	c #A3E0F7",
"H 	c #B1E5F8",
"I 	c #C1EAFA",
"J 	c #D4DFE4",
"K 	c #DBDEDF",
"L 	c #E6F6FC",
"M 	c #DDE1E3",
"N 	c #D9E7ED",
"O 	c #DAF0F8",
"P 	c #DBDBDC",
"Q 	c #C9E0E9",
"R 	c #ADE4F8",
"S 	c #9EDEF6",
"T 	c #8FDAF6",
"U 	c #80D5F4",
"V 	c #7BD3F4",
"W 	c #69D0F5",
"X 	c #2389C3",
"Y 	c #1273B2",
"Z 	c #72D4F6",
"` 	c #71D0F3",
" .	c #80D4F4",
"..	c #8FDAF5",
"+.	c #9DDEF7",
"@.	c #ACE3F8",
"#.	c #BCE8F9",
"$.	c #74C7EB",
"%.	c #D1DEE5",
"&.	c #E4E8EA",
"*.	c #E4E7EA",
"=.	c #DCE8ED",
"-.	c #E7E7E8",
";.	c #BAD6E4",
">.	c #7DCDEF",
",.	c #A9E2F7",
"'.	c #9ADDF6",
").	c #8BD8F5",
"!.	c #7CD3F4",
"~.	c #6BCDF3",
"{.	c #83D5F5",
"].	c #53C9F4",
"^.	c #1074B2",
"/.	c #5AC5EF",
"(.	c #62CAF2",
"_.	c #6DCEF3",
":.	c #79D3F4",
"<.	c #AAD7E9",
"[.	c #ABDCEF",
"}.	c #AFE4F8",
"|.	c #C0EAFA",
"1.	c #76C8EC",
"2.	c #D2E0E8",
"3.	c #E8E9EA",
"4.	c #E9E9EA",
"5.	c #BAD8E6",
"6.	c #82CFF0",
"7.	c #AEE3F8",
"8.	c #A0DFF7",
"9.	c #9ED8EE",
"0.	c #99D3EA",
"a.	c #67CCF3",
"b.	c #6ECFF3",
"c.	c #73D0F3",
"d.	c #43BCEC",
"e.	c #2390CA",
"f.	c #66CDF3",
"g.	c #77C7E5",
"h.	c #61CCF4",
"i.	c #73D1F4",
"j.	c #B7D2DF",
"k.	c #CEE1E9",
"l.	c #97DCF7",
"m.	c #A4E1F7",
"n.	c #BAE8F9",
"o.	c #70C6EC",
"p.	c #E1E7EB",
"q.	c #BCD9E8",
"r.	c #80CFF0",
"s.	c #ADE3F8",
"t.	c #A1DFF7",
"u.	c #96DBF6",
"v.	c #87D7F5",
"w.	c #C9E0E8",
"x.	c #B6D1DE",
"y.	c #61CBF3",
"z.	c #59C8F2",
"A.	c #90D6F0",
"B.	c #53C3EF",
"C.	c #2490C9",
"D.	c #63C9F0",
"E.	c #70C1E1",
"F.	c #D0C7C5",
"G.	c #B9CFD8",
"H.	c #81D1EF",
"I.	c #92D0EA",
"J.	c #EBE8E8",
"K.	c #8CD8F6",
"L.	c #98DCF6",
"M.	c #B2E4F7",
"N.	c #E9EBED",
"O.	c #D2E7EF",
"P.	c #A3E1F8",
"Q.	c #95DCF6",
"R.	c #7ED4F5",
"S.	c #ECE9E8",
"T.	c #88CDE9",
"U.	c #6ECBEF",
"V.	c #B0CFDB",
"W.	c #E0D8D6",
"X.	c #88CFEC",
"Y.	c #3DB9EB",
"Z.	c #147EBB",
"`.	c #6BCBF1",
" +	c #34B7EB",
".+	c #41ABDB",
"++	c #B6CBD7",
"@+	c #E9E3E1",
"#+	c #C7DEE9",
"$+	c #ECEAE9",
"%+	c #9FDBF2",
"&+	c #92DAF5",
"*+	c #CBE6F1",
"=+	c #EFEDED",
"-+	c #EDEDEE",
";+	c #F5F0EE",
">+	c #E4EBEE",
",+	c #A9DFF3",
"'+	c #85D6F5",
")+	c #7FD4F4",
"!+	c #9AD9F1",
"~+	c #EDEAE9",
"{+	c #BFDCE8",
"]+	c #E8E2E0",
"^+	c #C3D2DA",
"/+	c #81C4E3",
"(+	c #72CBEF",
"_+	c #4CBDEB",
":+	c #157DBB",
"<+	c #005DA0",
"[+	c #2F9DD3",
"}+	c #61C6EE",
"|+	c #43BDEC",
"1+	c #4CC2EF",
"2+	c #2CB3EB",
"3+	c #51B5E1",
"4+	c #E2E6E9",
"5+	c #E8E9EB",
"6+	c #D0E6ED",
"7+	c #AADDF1",
"8+	c #EAEBED",
"9+	c #F6F0EE",
"0+	c #8FCBE7",
"a+	c #2BA6DE",
"b+	c #59BAE5",
"c+	c #D1E2EB",
"d+	c #F2EEEE",
"e+	c #D1E6EE",
"f+	c #8BD6F2",
"g+	c #D1E5ED",
"h+	c #E8EAEB",
"i+	c #DDE4E8",
"j+	c #55B5E0",
"k+	c #2EB1E8",
"l+	c #5AC4EE",
"m+	c #68C7EE",
"n+	c #62C4EC",
"o+	c #2498D1",
"p+	c #00589D",
"q+	c #5ABDE7",
"r+	c #44BAE9",
"s+	c #40BAEB",
"t+	c #66C3E8",
"u+	c #AAD5E5",
"v+	c #E9E9E9",
"w+	c #F2EDEB",
"x+	c #DAE4EA",
"y+	c #DDE6EB",
"z+	c #EEECED",
"A+	c #B3D7E9",
"B+	c #3CAEE2",
"C+	c #1794CF",
"D+	c #1592CD",
"E+	c #0989C7",
"F+	c #23A2DC",
"G+	c #70C1E6",
"H+	c #E4EAED",
"I+	c #F0EDED",
"J+	c #E1E8EB",
"K+	c #E7E9EB",
"L+	c #EFEBEA",
"M+	c #DCE5E9",
"N+	c #96CEE5",
"O+	c #84CEEC",
"P+	c #60C3ED",
"Q+	c #48B9E8",
"R+	c #2FABE0",
"S+	c #6DCAF0",
"T+	c #33B2E6",
"U+	c #3DB7E9",
"V+	c #78C2E1",
"W+	c #C5D7E1",
"X+	c #77BFE1",
"Y+	c #3EB1E3",
"Z+	c #2AB0E8",
"`+	c #6CC5EA",
" @	c #F7F0EE",
".@	c #56BEE8",
"+@	c #007FC2",
"@@	c #3AABDE",
"#@	c #74D4F6",
"$@	c #66CAF0",
"%@	c #0084C5",
"&@	c #2AA2D9",
"*@	c #AFDAEC",
"=@	c #DEE8ED",
"-@	c #24ADE6",
";@	c #22ACE6",
">@	c #4BB3E2",
",@	c #8CC6E2",
"'@	c #DDDFE0",
")@	c #83C6E3",
"!@	c #74CAEE",
"~@	c #70C7EC",
"{@	c #2FB0E6",
"]@	c #0161A5",
"^@	c #6BC8EE",
"/@	c #30AFE5",
"(@	c #39B5E7",
"_@	c #31B1E6",
":@	c #24ACE5",
"<@	c #45BEED",
"[@	c #49C0EE",
"}@	c #4AC1EF",
"|@	c #7ECFEF",
"1@	c #F6EFED",
"2@	c #57BEE9",
"3@	c #0E8ECC",
"4@	c #0689C8",
"5@	c #1A97D1",
"6@	c #0082C4",
"7@	c #1E9BD4",
"8@	c #1B9AD4",
"9@	c #B8E0EF",
"0@	c #DDE8ED",
"a@	c #42BFEF",
"b@	c #46BFEE",
"c@	c #45BDEC",
"d@	c #3BB8EA",
"e@	c #1AA5E2",
"f@	c #37B2E6",
"g@	c #74C9ED",
"h@	c #71C7EB",
"i@	c #31AFE4",
"j@	c #0261A4",
"k@	c #0161A4",
"l@	c #6AC6ED",
"m@	c #2CADE3",
"n@	c #36B1E5",
"o@	c #38B4E7",
"p@	c #3AB6E9",
"q@	c #43BCEB",
"r@	c #7BCDED",
"s@	c #F7EFEE",
"t@	c #4FBBE8",
"u@	c #1797D2",
"v@	c #55CAF4",
"w@	c #078AC9",
"x@	c #44BCEB",
"y@	c #3DB7E8",
"z@	c #1698D3",
"A@	c #B5DFEF",
"B@	c #3DBBED",
"C@	c #42BBEB",
"D@	c #3FB9E9",
"E@	c #3BB6E9",
"F@	c #38B4E6",
"G@	c #30AFE4",
"H@	c #6EC6EB",
"I@	c #6EC5EB",
"J@	c #31AEE3",
"K@	c #67C4EB",
"L@	c #28A9E1",
"M@	c #32AFE3",
"N@	c #68BDE2",
"O@	c #A2D1E4",
"P@	c #36B6E9",
"Q@	c #3EB9EA",
"R@	c #73C9EB",
"S@	c #4CBBE8",
"T@	c #0185C5",
"U@	c #33AFE2",
"V@	c #0A8DCB",
"W@	c #3AB4E6",
"X@	c #1191CE",
"Y@	c #1B9DD7",
"Z@	c #B0DCED",
"`@	c #DCE7ED",
" #	c #33B6EA",
".#	c #3CB8E9",
"+#	c #31B3E7",
"@#	c #4FBAE7",
"##	c #8CC9E3",
"$#	c #47B3E1",
"%#	c #64C1E9",
"&#	c #6CC3E9",
"*#	c #2BAAE2",
"=#	c #005C9F",
"-#	c #00599D",
";#	c #4BB2E1",
">#	c #38AEE2",
",#	c #2DABE2",
"'#	c #63B6DC",
")#	c #CEDAE1",
"!#	c #F4ECE9",
"~#	c #E7E9EA",
"{#	c #ABD8EA",
"]#	c #DBE7EC",
"^#	c #C3E0ED",
"/#	c #4FBDEA",
"(#	c #1294D1",
"_#	c #0081C3",
":#	c #0387C6",
"<#	c #28AAE1",
"[#	c #89D1EE",
"}#	c #E6EBED",
"|#	c #F2EEED",
"1#	c #C1DFEB",
"2#	c #9AD3EA",
"3#	c #DAE5EA",
"4#	c #F4EBE8",
"5#	c #E2E0E0",
"6#	c #60B6DC",
"7#	c #5FBEE7",
"8#	c #6AC2E8",
"9#	c #1E9ED8",
"0#	c #1D90CB",
"a#	c #53B8E4",
"b#	c #2AA8E0",
"c#	c #2BAAE1",
"d#	c #0B9FDF",
"e#	c #71BEE1",
"f#	c #EBEAEA",
"g#	c #E9EAEB",
"h#	c #BEDAE8",
"i#	c #6BBDE2",
"j#	c #EDEDED",
"k#	c #F4EFEE",
"l#	c #A3D8ED",
"m#	c #31AFE3",
"n#	c #66C6EC",
"o#	c #D8E7EE",
"p#	c #B7D9E9",
"q#	c #57B6E2",
"r#	c #58B5E0",
"s#	c #0D9DDD",
"t#	c #1FA4DE",
"u#	c #5FBDE6",
"v#	c #5BBAE4",
"w#	c #138AC8",
"x#	c #0874B6",
"y#	c #54B7E4",
"z#	c #1DA3DE",
"A#	c #52B1DB",
"B#	c #BED1DA",
"C#	c #F0E8E5",
"D#	c #BED9E6",
"E#	c #EFECEA",
"F#	c #64BEE5",
"G#	c #1FA5E0",
"H#	c #91CAE6",
"I#	c #ECECED",
"J#	c #F5EFEE",
"K#	c #DBE6EC",
"L#	c #4DB3E2",
"M#	c #21A8E2",
"N#	c #36B2E5",
"O#	c #85C8E6",
"P#	c #D8E2E7",
"Q#	c #EBE5E3",
"R#	c #90C4DB",
"S#	c #26A4DC",
"T#	c #64BEE6",
"U#	c #45B1E1",
"V#	c #0974B5",
"W#	c #41AFE1",
"X#	c #71B3D1",
"Y#	c #D3CBC9",
"Z#	c #A8C6D5",
"`#	c #36A8DC",
" $	c #6DBEE2",
".$	c #EFEAE9",
"+$	c #26A8E1",
"@$	c #30AEE3",
"#$	c #2BACE3",
"$$	c #2CA7DF",
"%$	c #E3E9EC",
"&$	c #A7D3E8",
"*$	c #18A3DF",
"=$	c #33AFE4",
"-$	c #30ADE2",
";$	c #2EACE2",
">$	c #47B2E1",
",$	c #F5EDE9",
"'$	c #3CACDE",
")$	c #67B7DC",
"!$	c #D0D2D3",
"~$	c #CDCACA",
"{$	c #7CC2E3",
"]$	c #26A2DB",
"^$	c #097DBE",
"/$	c #46AEDF",
"($	c #3CA4D4",
"_$	c #129DDC",
":$	c #20A3DD",
"<$	c #B7D3E1",
"[$	c #ADD3E4",
"}$	c #25A7E0",
"|$	c #2BAAE0",
"1$	c #2CABE1",
"2$	c #2DAAE1",
"3$	c #24A9E1",
"4$	c #E0E7EC",
"5$	c #ADD6E8",
"6$	c #25A8E1",
"7$	c #2CAAE1",
"8$	c #2BA9E0",
"9$	c #29A8DF",
"0$	c #1BA2DE",
"a$	c #DDE3E7",
"b$	c #8BC4DF",
"c$	c #20A2DC",
"d$	c #109ADA",
"e$	c #78B8D5",
"f$	c #097CBD",
"g$	c #2AA1D9",
"h$	c #219FDA",
"i$	c #1D9EDA",
"j$	c #1A9FDB",
"k$	c #9FC7D9",
"l$	c #64B7DD",
"m$	c #25A5DD",
"n$	c #26A6DE",
"o$	c #27A6DE",
"p$	c #21A4DE",
"q$	c #B7D9E8",
"r$	c #EAEAEB",
"s$	c #EEECEB",
"t$	c #97CDE6",
"u$	c #1FA3DD",
"v$	c #25A5DE",
"w$	c #24A4DD",
"x$	c #97C7DE",
"y$	c #97C4D9",
"z$	c #179DD9",
"A$	c #189BD8",
"B$	c #4EB1E0",
"C$	c #229CD6",
"D$	c #0369AC",
"E$	c #29A3DB",
"F$	c #179AD7",
"G$	c #1B9DD8",
"H$	c #139BD9",
"I$	c #179DDA",
"J$	c #1FA0DB",
"K$	c #21A2DB",
"L$	c #1CA0DB",
"M$	c #B7D7E6",
"N$	c #DDE4E9",
"O$	c #C3DBE7",
"P$	c #F4EDEA",
"Q$	c #97CBE4",
"R$	c #189EDA",
"S$	c #1E9FDA",
"T$	c #0E99D9",
"U$	c #0E98D8",
"V$	c #189AD7",
"W$	c #1A9AD7",
"X$	c #40ADDF",
"Y$	c #0268AC",
"Z$	c #0875B6",
"`$	c #189BD7",
" %	c #1699D6",
".%	c #199BD8",
"+%	c #1A9DD8",
"@%	c #179CD9",
"#%	c #A4CADD",
"$%	c #E6E4E3",
"%%	c #32A6DC",
"&%	c #D1DEE4",
"*%	c #82C2E0",
"=%	c #5BB5DE",
"-%	c #ECE5E3",
";%	c #7FBEDC",
">%	c #189CD8",
",%	c #169AD7",
"'%	c #1598D5",
")%	c #1297D4",
"!%	c #2BA2DA",
"~%	c #0472B5",
"{%	c #0673B6",
"]%	c #1197D6",
"^%	c #1296D4",
"/%	c #1498D5",
"(%	c #1598D6",
"_%	c #179AD6",
":%	c #229ED8",
"<%	c #3BA6D8",
"[%	c #0F97D7",
"}%	c #C6D4DA",
"|%	c #7FBCD9",
"1%	c #1299D7",
"2%	c #4EADD9",
"3%	c #1398D7",
"4%	c #1397D5",
"5%	c #1196D4",
"6%	c #1094D3",
"7%	c #0E95D4",
"8%	c #0673B5",
"9%	c #0C90D1",
"0%	c #0F94D3",
"a%	c #1095D3",
"b%	c #1195D4",
"c%	c #0A94D5",
"d%	c #BAC8D0",
"e%	c #76B4D2",
"f%	c #0E93D3",
"g%	c #0D92D2",
"h%	c #0A8FD0",
"i%	c #0268AB",
"j%	c #0578BA",
"k%	c #0B91D2",
"l%	c #0C92D2",
"m%	c #0C91D2",
"n%	c #0D93D2",
"o%	c #0791D2",
"p%	c #99BACA",
"q%	c #60AACE",
"r%	c #0B91D1",
"s%	c #0A91D1",
"t%	c #0990D1",
"u%	c #0478BA",
"v%	c #026FB2",
"w%	c #067FC1",
"x%	c #078BCD",
"y%	c #0991D2",
"z%	c #0090D5",
"A%	c #0291D3",
"B%	c #0891D2",
"C%	c #047FC1",
"D%	c #005FA3",
"                        . . . . . . . .                         ",
"                  . . . + @ # $ $ # @ + . . .                   ",
"              . . % % & * = - - ; > , ' ) ! % . .               ",
"            . . % ~ { ] ^ / ( _ : < [ } | 1 2 ! . .             ",
"          . 3 4 5 6 7 8 9 0 a b c d e f g h i j k 3 .           ",
"        . l m n o p 7 q r s t u v d w x g h y z A B l .         ",
"      . 3 C D E F G H I J K L M N O P Q R S T U V W X 3 .       ",
"    . . Y Z `  ...+.@.#.$.%.&.*.=.-.;.>.,.'.).!.~.{.].^.. .     ",
"    . % /.(._.:.<.[.G }.|.1.2.3.4.5.6.7.8.F 9.0.a.b.c.d.! .     ",
"  . ! e.f.g.h.i.j.k.l.m.R n.o.p.q.r.s.t.u.v.w.x.y.z.A.B.C.! .   ",
"  . ! D.E.F.G.H.I.J.K.L.8.p M.N.O.P.S Q.).R.S.T.U.V.W.X.Y.! .   ",
"  . Z.`. +.+++@+#+$+%+).&+*+=+-+;+>+,+'+)+!+~+{+]+^+/+(+_+:+<+  ",
". 3 [+}+|+1+2+3+4+5+6+7+8+9+0+a+b+c+d+e+f+g+h+i+j+k+l+m+n+o+3 . ",
". p+q+r+s+t+u+v+w+x+y+z+A+B+C+D+E+F+G+H+I+J+K+L+M+N+O+P+Q+R+p+. ",
". 3 S+T+U+V+W+X+Y+Z+`+ @.@+@@@#@$@%@&@*@=@-@;@>@,@'@)@!@~@{@3 . ",
". ]@^@/@(@_@:@<@[@}@|@1@2@3@4@5@6@7@8@9@0@a@b@c@d@e@f@g@h@i@j@. ",
". k@l@m@n@o@p@s+q@<@r@s@t@u@v@w@x@y@z@A@=.B@C@D@E@F@G@H@I@J@j@. ",
". % K@L@M@N@O@t+P@Q@R@ @S@T@U@V@W@X@Y@Z@`@ #.#+#@###$#%#&#*#=#. ",
". -#;#>#,#'#)#!#~#{#]#=+^#/#(#_#:#<#[#}#|#1#2#3#4#5#6#7#8#9#-#. ",
". 3 0#a#b#c#d#e#f#g#h#i#j#k#l#m#n#o#9+p#q#3#g#v+r#s#t#u#v#w#3 . ",
"  . x#y#z#A#B#C#D#E#F#f@G#H# @I#J#K#L#M#N#O#f#P#Q#R#S#T#U#V#.   ",
"  . ! W#X#Y#Z#`# $.$+$@$M@#$$$%$&$*$=$-$;$>$,$'$)$!$~${$]$! .   ",
"  . ! ^$/$($_$:$<$[$}$|$1$2$3$4$5$6$7$8$9$0$a$b$c$d$e$L#f$! .   ",
"    . ! g$h$i$j$k$l$m$n$o$p$q$r$s$t$u$v$w$c$x$y$z$A$B$C$! .     ",
"    . . D$E$F$G$H$I$J$K$L$M$v+N$O$P$Q$R$J$S$T$U$V$W$X$Y$. .     ",
"      . ! Z$`$ %F$.%+%@%#%$%%%&%*%=%-%;%>%`$,%'%)%!%~%! .       ",
"        . 3 {%]%^%/%(%_%:%<%[%}%|%1%2%3%(%4%5%6%7%8%3 .         ",
"          . ! D$9%0%a%b%^%^%c%d%e%5%b%b%6%f%g%h%i%! .           ",
"            . . ! j%k%l%m%n%o%p%q%l%l%r%s%t%u%! . .             ",
"              . . ! ! v%w%x%y%z%A%B%x%C%v%! ! . .               ",
"                  . . . 3 l ! D%D%! l % . . .                   ",
"                        . . . . . . . .                         "};
